HIERARCHY
ROOT joint_Root
{
	OFFSET 0.0 0.0 0.0
	CHANNELS 6 Xposition Yposition Zposition Zrotation Xrotation Yrotation 
	JOINT Hips
	{
		OFFSET -17.1583 93.1646 452.98
		CHANNELS 6 Xposition Yposition Zposition Zrotation Xrotation Yrotation 
		JOINT Spine
		{
			OFFSET 15.7357 0.0 0.0
			CHANNELS 6 Xposition Yposition Zposition Zrotation Xrotation Yrotation 
			JOINT Chest
			{
				OFFSET 8.98455 -0.406207 0.0
				CHANNELS 6 Xposition Yposition Zposition Zrotation Xrotation Yrotation 
				JOINT Neck
				{
					OFFSET 16.3773 0.0 0.0
					CHANNELS 6 Xposition Yposition Zposition Zrotation Xrotation Yrotation 
					JOINT Head
					{
						OFFSET 6.45672 0.0 0.0
						CHANNELS 6 Xposition Yposition Zposition Zrotation Xrotation Yrotation 
						End Site
						{
							OFFSET 0.0 0.0 0.0
						}
					}
				}
				JOINT Shoulder_L
				{
					OFFSET 12.9942 -0.242716 4.98039
					CHANNELS 6 Xposition Yposition Zposition Zrotation Xrotation Yrotation 
					JOINT UpperArm_L
					{
						OFFSET 5.34809 0.0 0.0
						CHANNELS 6 Xposition Yposition Zposition Zrotation Xrotation Yrotation 
						JOINT LowerArm_L
						{
							OFFSET 24.3286 1.87007e-05 0.0
							CHANNELS 6 Xposition Yposition Zposition Zrotation Xrotation Yrotation 
							JOINT Hand_L
							{
								OFFSET 22.2916 0.0 0.0
								CHANNELS 6 Xposition Yposition Zposition Zrotation Xrotation Yrotation 
								End Site
								{
									OFFSET 0.0 0.0 0.0
								}
							}
						}
					}
				}
				JOINT Shoulder_R
				{
					OFFSET 12.9945 -0.242716 -4.98039
					CHANNELS 6 Xposition Yposition Zposition Zrotation Xrotation Yrotation 
					JOINT UpperArm_R
					{
						OFFSET -5.34813 0.0 0.0
						CHANNELS 6 Xposition Yposition Zposition Zrotation Xrotation Yrotation 
						JOINT LowerArm_R
						{
							OFFSET -24.3289 0.000322201 0.0
							CHANNELS 6 Xposition Yposition Zposition Zrotation Xrotation Yrotation 
							JOINT Hand_R
							{
								OFFSET -22.2915 -0.000108084 0.0
								CHANNELS 6 Xposition Yposition Zposition Zrotation Xrotation Yrotation 
								End Site
								{
									OFFSET 0.0 0.0 0.0
								}
							}
						}
					}
				}
			}
		}
		JOINT UpperLeg_L
		{
			OFFSET -2.19248 -6.46944 0.0
			CHANNELS 6 Xposition Yposition Zposition Zrotation Xrotation Yrotation 
			JOINT LowerLeg_L
			{
				OFFSET 39.0811 0.0 -1.23785e-05
				CHANNELS 6 Xposition Yposition Zposition Zrotation Xrotation Yrotation 
				JOINT Foot_L
				{
					OFFSET 40.9854 0.0 -1.26872e-05
					CHANNELS 6 Xposition Yposition Zposition Zrotation Xrotation Yrotation 
					JOINT Toes_L
					{
						OFFSET 11.7543 0.0 0.0
						CHANNELS 6 Xposition Yposition Zposition Zrotation Xrotation Yrotation 
						End Site
						{
							OFFSET 0.0 0.0 0.0
						}
					}
				}
			}
		}
		JOINT UpperLeg_R
		{
			OFFSET -2.19251 6.46944 0.0
			CHANNELS 6 Xposition Yposition Zposition Zrotation Xrotation Yrotation 
			JOINT LowerLeg_R
			{
				OFFSET -39.0811 -0.00228153 -0.0401928
				CHANNELS 6 Xposition Yposition Zposition Zrotation Xrotation Yrotation 
				JOINT Foot_R
				{
					OFFSET -40.9854 0.0 0.0
					CHANNELS 6 Xposition Yposition Zposition Zrotation Xrotation Yrotation 
					JOINT Toes_R
					{
						OFFSET -11.7543 0.0 0.0
						CHANNELS 6 Xposition Yposition Zposition Zrotation Xrotation Yrotation 
						End Site
						{
							OFFSET 0.0 0.0 0.0
						}
					}
				}
			}
		}
	}
}
MOTION
Frames:	4
Frame Time:	0.0333333
0.000000 0.000000 0.000000 0.000000 0.000000 -0.000000 -0.158612 92.916000 1.421950 89.250300 -1.694640 2.038470 15.735700 0.000005 -0.000001 84.777700 87.562800 -76.535100 8.984550 -0.406207 -0.000000 -2.772250 -1.198720 16.458000 16.377300 -0.000001 -0.000001 1.091120 2.946540 4.184710 6.456720 -0.000001 -0.000000 3.851510 2.733670 22.895500 12.994200 -0.242716 4.980390 -86.743800 -6.544030 -63.471300 5.348090 -0.000007 -0.000001 -33.195500 -60.235200 -72.408000 24.328600 0.000019 0.000005 1.356090 21.961300 -3.621800 22.291600 -0.000001 0.000005 38.058400 4.574230 15.355400 12.994500 -0.242716 -4.980390 88.609200 4.770720 -73.726200 -5.348130 -0.000001 -0.000004 -58.916700 4.811920 -2.643840 -24.328900 0.000322 -0.000009 1.793310 6.816790 -14.785200 -22.291500 -0.000108 -0.000004 6.866970 5.222170 2.157060 -2.192480 -6.469440 -0.000000 -174.592000 -10.637600 2.254430 39.081100 -0.000007 -0.000012 0.031129 -0.120022 14.540300 40.985400 -0.000006 -0.000013 0.097964 14.666800 -69.557200 11.754300 -0.000000 0.000003 -0.000142 0.169989 -9.682040 -2.192510 6.469440 -0.000001 176.203000 2.505360 -177.749000 -39.081100 -0.002282 -0.040193 0.047455 -0.184740 13.432600 -40.985400 0.000008 0.000006 -4.319750 4.261130 -69.671000 -11.754300 -0.000006 -0.000006 -0.011041 0.278928 -5.239070
0.000000 0.000000 0.000000 0.000000 0.000000 -0.000000 -0.159794 92.916900 1.394800 89.229700 -1.649160 2.062940 15.735700 0.000005 -0.000001 84.876000 87.544400 -76.662700 8.984550 -0.406207 -0.000000 -2.736320 -1.188440 16.400000 16.377300 -0.000001 -0.000001 1.147760 2.930690 4.267340 6.456720 -0.000001 -0.000000 3.842360 2.767260 22.842200 12.994200 -0.242716 4.980390 -86.741800 -6.531890 -63.415200 5.348090 -0.000007 -0.000001 -33.396000 -60.193100 -72.484000 24.328600 0.000019 0.000005 1.378920 21.891700 -3.693740 22.291600 -0.000001 0.000005 37.896300 4.577160 15.305500 12.994500 -0.242716 -4.980390 88.632600 4.686590 -73.714100 -5.348130 -0.000001 -0.000004 -59.068500 4.869310 -2.652120 -24.328900 0.000322 -0.000009 1.792060 6.858790 -14.689100 -22.291500 -0.000108 -0.000004 6.919020 5.220750 2.193450 -2.192480 -6.469440 -0.000000 -174.581000 -10.457800 2.219680 39.081100 -0.000007 -0.000012 0.030324 -0.116607 14.577100 40.985400 -0.000006 -0.000013 0.077901 14.564600 -69.481100 11.754300 -0.000000 0.000003 -0.000196 0.170857 -9.646770 -2.192510 6.469440 -0.000001 176.223000 2.596050 -177.733000 -39.081100 -0.002282 -0.040193 0.047356 -0.184378 13.428700 -40.985400 0.000008 0.000006 -4.296400 4.297580 -69.652000 -11.754300 -0.000006 -0.000006 -0.011195 0.280025 -5.194190
0.000000 0.000000 0.000000 0.000000 0.000000 -0.000000 -0.167474 92.935300 1.353150 89.230500 -1.639020 2.024220 15.735700 0.000005 -0.000001 85.151500 87.556500 -76.968400 8.984550 -0.406207 -0.000000 -2.761030 -1.161910 16.340100 16.377300 -0.000001 -0.000001 1.209620 2.935140 4.298120 6.456720 -0.000001 -0.000000 3.883370 2.798320 22.779600 12.994200 -0.242716 4.980390 -86.743500 -6.528960 -63.416500 5.348090 -0.000007 -0.000001 -33.223400 -60.099700 -72.229500 24.328600 0.000019 0.000005 1.387300 21.789300 -3.732700 22.291600 -0.000001 0.000005 37.873000 4.566900 15.479600 12.994500 -0.242716 -4.980390 88.658700 4.600810 -73.726900 -5.348130 -0.000001 -0.000004 -59.253900 4.900260 -2.609250 -24.328900 0.000322 -0.000009 1.791920 6.869230 -14.666800 -22.291500 -0.000108 -0.000004 6.823970 5.225430 2.073620 -2.192480 -6.469440 -0.000000 -174.602000 -10.448700 2.209930 39.081100 -0.000007 -0.000012 0.030251 -0.117315 14.459800 40.985400 -0.000006 -0.000013 0.056524 14.526600 -69.446900 11.754300 -0.000000 0.000003 -0.000033 0.168179 -9.755540 -2.192510 6.469440 -0.000001 176.204000 2.620300 -177.745000 -39.081100 -0.002282 -0.040193 0.044369 -0.173527 13.305100 -40.985400 0.000008 0.000006 -4.454310 4.357780 -69.500200 -11.754300 -0.000006 -0.000006 -0.010816 0.277304 -5.305570
0.000000 0.000000 0.000000 0.000000 0.000000 -0.000000 -0.179202 92.938000 1.309670 89.189400 -1.653200 1.957560 15.735700 0.000005 -0.000001 85.113800 87.576600 -76.936400 8.984550 -0.406207 -0.000000 -2.801190 -1.164030 16.328300 16.377300 -0.000001 -0.000001 1.312130 2.935350 4.328140 6.456720 -0.000001 -0.000000 3.906180 2.850670 22.616300 12.994200 -0.242716 4.980390 -86.760300 -6.499540 -63.432400 5.348090 -0.000007 -0.000001 -33.431100 -60.099300 -72.225300 24.328600 0.000019 0.000005 1.471670 21.851500 -3.948400 22.291600 -0.000001 0.000005 38.072400 4.560010 15.596600 12.994500 -0.242716 -4.980390 88.683900 4.518630 -73.743100 -5.348130 -0.000001 -0.000004 -59.442000 4.982620 -2.588210 -24.328900 0.000322 -0.000009 1.798510 6.864390 -14.728400 -22.291500 -0.000108 -0.000004 6.779120 5.223530 2.122470 -2.192480 -6.469440 -0.000000 -174.582000 -10.390700 2.080550 39.081100 -0.000007 -0.000012 0.030826 -0.118970 14.526300 40.985400 -0.000006 -0.000013 0.043250 14.448200 -69.440300 11.754300 -0.000000 0.000003 -0.000159 0.170256 -9.671160 -2.192510 6.469440 -0.000001 176.258000 2.682160 -177.849000 -39.081100 -0.002282 -0.040193 0.044343 -0.173239 13.318100 -40.985400 0.000008 0.000006 -4.475960 4.379090 -69.462600 -11.754300 -0.000006 -0.000006 -0.010975 0.278451 -5.258620
